<?xml version="1.0" encoding="utf-8" standalone="no"?>
<!DOCTYPE svg PUBLIC "-//W3C//DTD SVG 1.1//EN"
  "http://www.w3.org/Graphics/SVG/1.1/DTD/svg11.dtd">
<svg xmlns:xlink="http://www.w3.org/1999/xlink" width="381.936328pt" height="278.044547pt" viewBox="0 0 381.936328 278.044547" xmlns="http://www.w3.org/2000/svg" version="1.1">
 <metadata>
  <rdf:RDF xmlns:dc="http://purl.org/dc/elements/1.1/" xmlns:cc="http://creativecommons.org/ns#" xmlns:rdf="http://www.w3.org/1999/02/22-rdf-syntax-ns#">
   <cc:Work>
    <dc:type rdf:resource="http://purl.org/dc/dcmitype/StillImage"/>
    <dc:date>2026-08-13T09:18:44.947581</dc:date>
    <dc:format>image/svg+xml</dc:format>
    <dc:creator>
     <cc:Agent>
      <dc:title>Matplotlib v3.11.1, https://matplotlib.org/</dc:title>
     </cc:Agent>
    </dc:creator>
   </cc:Work>
  </rdf:RDF>
 </metadata>
 <defs>
  <style type="text/css">*{stroke-linejoin: round; stroke-linecap: butt}</style>
 </defs>
 <g id="figure_1">
  <g id="patch_1">
   <path d="M 0 278.044547 
L 381.936328 278.044547 
L 381.936328 0 
L 0 0 
z
" style="fill: #ffffff"/>
  </g>
  <g id="axes_1">
   <g id="patch_2">
    <path d="M 42.816328 245.222437 
L 377.616328 245.222437 
L 377.616328 17.918437 
L 42.816328 17.918437 
z
" style="fill: #ffffff"/>
   </g>
   <g id="matplotlib.axis_1">
    <g id="xtick_1">
     <g id="line2d_1">
      <path d="M 63.525606 245.222437 
L 63.525606 17.918437 
" clip-path="url(#pb8fa564daa)" style="fill: none; stroke-dasharray: 0.6,0.99; stroke-dashoffset: 0; stroke: #c8c8c8; stroke-width: 0.6"/>
     </g>
     <g id="line2d_2">
      <defs>
       <path id="mbf30e275b0" d="M 0 0 
L 0 3 
" style="stroke: #000000; stroke-width: 0.8"/>
      </defs>
      <g>
       <use xlink:href="#mbf30e275b0" x="63.525606" y="245.222437" style="stroke: #000000; stroke-width: 0.8"/>
      </g>
     </g>
     <g id="text_1">
      <!-- 16 -->
      <g transform="translate(57.799356 258.560328) scale(0.09 -0.09)">
       <defs>
        <path id="DejaVuSerif-14" d="M 909 0 
L 909 331 
L 1722 331 
L 1722 4213 
L 781 3603 
L 781 4013 
L 1919 4750 
L 2350 4750 
L 2350 331 
L 3163 331 
L 3163 0 
L 909 0 
z
" transform="scale(0.015625)"/>
        <path id="DejaVuSerif-19" d="M 2094 219 
Q 2534 219 2771 542 
Q 3009 866 3009 1472 
Q 3009 2078 2771 2401 
Q 2534 2725 2094 2725 
Q 1647 2725 1412 2412 
Q 1178 2100 1178 1509 
Q 1178 888 1415 553 
Q 1653 219 2094 219 
z
M 1075 2569 
Q 1288 2803 1556 2918 
Q 1825 3034 2163 3034 
Q 2859 3034 3264 2615 
Q 3669 2197 3669 1472 
Q 3669 763 3233 336 
Q 2797 -91 2069 -91 
Q 1278 -91 853 498 
Q 428 1088 428 2181 
Q 428 3406 931 4078 
Q 1434 4750 2350 4750 
Q 2597 4750 2869 4703 
Q 3141 4656 3425 4563 
L 3425 3794 
L 3072 3794 
Q 3034 4109 2831 4275 
Q 2628 4441 2284 4441 
Q 1678 4441 1381 3981 
Q 1084 3522 1075 2569 
z
" transform="scale(0.015625)"/>
       </defs>
       <use xlink:href="#DejaVuSerif-14"/>
       <use xlink:href="#DejaVuSerif-19" transform="translate(63.625 0)"/>
      </g>
     </g>
    </g>
    <g id="xtick_2">
     <g id="line2d_3">
      <path d="M 201.587462 245.222437 
L 201.587462 17.918437 
" clip-path="url(#pb8fa564daa)" style="fill: none; stroke-dasharray: 0.6,0.99; stroke-dashoffset: 0; stroke: #c8c8c8; stroke-width: 0.6"/>
     </g>
     <g id="line2d_4">
      <g>
       <use xlink:href="#mbf30e275b0" x="201.587462" y="245.222437" style="stroke: #000000; stroke-width: 0.8"/>
      </g>
     </g>
     <g id="text_2">
      <!-- 24 -->
      <g transform="translate(195.861212 258.560328) scale(0.09 -0.09)">
       <defs>
        <path id="DejaVuSerif-15" d="M 819 3553 
L 469 3553 
L 469 4384 
Q 803 4563 1142 4656 
Q 1481 4750 1806 4750 
Q 2534 4750 2956 4397 
Q 3378 4044 3378 3438 
Q 3378 2753 2422 1800 
Q 2347 1728 2309 1691 
L 1131 513 
L 3078 513 
L 3078 1088 
L 3444 1088 
L 3444 0 
L 434 0 
L 434 341 
L 1850 1753 
Q 2319 2222 2519 2614 
Q 2719 3006 2719 3438 
Q 2719 3909 2473 4175 
Q 2228 4441 1797 4441 
Q 1350 4441 1106 4219 
Q 863 3997 819 3553 
z
" transform="scale(0.015625)"/>
        <path id="DejaVuSerif-17" d="M 2234 1581 
L 2234 4063 
L 641 1581 
L 2234 1581 
z
M 3609 0 
L 1484 0 
L 1484 331 
L 2234 331 
L 2234 1247 
L 197 1247 
L 197 1588 
L 2241 4750 
L 2859 4750 
L 2859 1581 
L 3750 1581 
L 3750 1247 
L 2859 1247 
L 2859 331 
L 3609 331 
L 3609 0 
z
" transform="scale(0.015625)"/>
       </defs>
       <use xlink:href="#DejaVuSerif-15"/>
       <use xlink:href="#DejaVuSerif-17" transform="translate(63.625 0)"/>
      </g>
     </g>
    </g>
    <g id="xtick_3">
     <g id="line2d_5">
      <path d="M 339.649318 245.222437 
L 339.649318 17.918437 
" clip-path="url(#pb8fa564daa)" style="fill: none; stroke-dasharray: 0.6,0.99; stroke-dashoffset: 0; stroke: #c8c8c8; stroke-width: 0.6"/>
     </g>
     <g id="line2d_6">
      <g>
       <use xlink:href="#mbf30e275b0" x="339.649318" y="245.222437" style="stroke: #000000; stroke-width: 0.8"/>
      </g>
     </g>
     <g id="text_3">
      <!-- 32 -->
      <g transform="translate(333.923068 258.560328) scale(0.09 -0.09)">
       <defs>
        <path id="DejaVuSerif-16" d="M 622 4469 
Q 988 4606 1323 4678 
Q 1659 4750 1953 4750 
Q 2638 4750 3022 4454 
Q 3406 4159 3406 3634 
Q 3406 3213 3140 2930 
Q 2875 2647 2388 2547 
Q 2963 2466 3280 2130 
Q 3597 1794 3597 1259 
Q 3597 606 3158 257 
Q 2719 -91 1894 -91 
Q 1528 -91 1179 -12 
Q 831 66 488 225 
L 488 1131 
L 838 1131 
Q 869 681 1141 450 
Q 1413 219 1906 219 
Q 2384 219 2661 495 
Q 2938 772 2938 1253 
Q 2938 1803 2653 2086 
Q 2369 2369 1819 2369 
L 1522 2369 
L 1522 2688 
L 1678 2688 
Q 2225 2688 2498 2914 
Q 2772 3141 2772 3597 
Q 2772 4006 2547 4223 
Q 2322 4441 1900 4441 
Q 1478 4441 1245 4241 
Q 1013 4041 972 3647 
L 622 3647 
L 622 4469 
z
" transform="scale(0.015625)"/>
       </defs>
       <use xlink:href="#DejaVuSerif-16"/>
       <use xlink:href="#DejaVuSerif-15" transform="translate(63.625 0)"/>
      </g>
     </g>
    </g>
    <g id="text_4">
     <!-- Loop depth $r$ at evaluation -->
     <g transform="translate(149.646328 271.562437) scale(0.09 -0.09)">
      <defs>
       <path id="DejaVuSerif-2f" d="M 353 0 
L 353 331 
L 947 331 
L 947 4331 
L 353 4331 
L 353 4666 
L 2175 4666 
L 2175 4331 
L 1581 4331 
L 1581 384 
L 3713 384 
L 3713 1166 
L 4097 1166 
L 4097 0 
L 353 0 
z
" transform="scale(0.015625)"/>
       <path id="DejaVuSerif-52" d="M 1925 219 
Q 2388 219 2623 584 
Q 2859 950 2859 1663 
Q 2859 2375 2623 2739 
Q 2388 3103 1925 3103 
Q 1463 3103 1227 2739 
Q 991 2375 991 1663 
Q 991 950 1228 584 
Q 1466 219 1925 219 
z
M 1925 -91 
Q 1200 -91 759 389 
Q 319 869 319 1663 
Q 319 2456 758 2934 
Q 1197 3413 1925 3413 
Q 2653 3413 3092 2934 
Q 3531 2456 3531 1663 
Q 3531 869 3092 389 
Q 2653 -91 1925 -91 
z
" transform="scale(0.015625)"/>
       <path id="DejaVuSerif-53" d="M 1313 1825 
L 1313 1497 
Q 1313 897 1542 583 
Q 1772 269 2209 269 
Q 2650 269 2876 622 
Q 3103 975 3103 1663 
Q 3103 2353 2876 2703 
Q 2650 3053 2209 3053 
Q 1772 3053 1542 2737 
Q 1313 2422 1313 1825 
z
M 738 2988 
L 184 2988 
L 184 3322 
L 1313 3322 
L 1313 2803 
Q 1481 3116 1742 3264 
Q 2003 3413 2388 3413 
Q 3000 3413 3387 2928 
Q 3775 2444 3775 1663 
Q 3775 881 3387 395 
Q 3000 -91 2388 -91 
Q 2003 -91 1742 57 
Q 1481 206 1313 519 
L 1313 -997 
L 1856 -997 
L 1856 -1331 
L 184 -1331 
L 184 -997 
L 738 -997 
L 738 2988 
z
" transform="scale(0.015625)"/>
       <path id="DejaVuSerif-3" transform="scale(0.015625)"/>
       <path id="DejaVuSerif-47" d="M 3359 331 
L 3909 331 
L 3909 0 
L 2784 0 
L 2784 519 
Q 2616 206 2355 57 
Q 2094 -91 1709 -91 
Q 1097 -91 708 395 
Q 319 881 319 1663 
Q 319 2444 706 2928 
Q 1094 3413 1709 3413 
Q 2094 3413 2355 3264 
Q 2616 3116 2784 2803 
L 2784 4531 
L 2241 4531 
L 2241 4863 
L 3359 4863 
L 3359 331 
z
M 2784 1497 
L 2784 1825 
Q 2784 2422 2554 2737 
Q 2325 3053 1888 3053 
Q 1444 3053 1217 2703 
Q 991 2353 991 1663 
Q 991 975 1217 622 
Q 1444 269 1888 269 
Q 2325 269 2554 583 
Q 2784 897 2784 1497 
z
" transform="scale(0.015625)"/>
       <path id="DejaVuSerif-48" d="M 3469 1600 
L 991 1600 
L 991 1575 
Q 991 903 1244 561 
Q 1497 219 1991 219 
Q 2369 219 2611 417 
Q 2853 616 2950 1006 
L 3413 1006 
Q 3275 459 2904 184 
Q 2534 -91 1931 -91 
Q 1203 -91 761 389 
Q 319 869 319 1663 
Q 319 2450 753 2931 
Q 1188 3413 1894 3413 
Q 2647 3413 3050 2948 
Q 3453 2484 3469 1600 
z
M 2791 1931 
Q 2772 2513 2545 2808 
Q 2319 3103 1894 3103 
Q 1497 3103 1269 2806 
Q 1041 2509 991 1931 
L 2791 1931 
z
" transform="scale(0.015625)"/>
       <path id="DejaVuSerif-57" d="M 691 2988 
L 184 2988 
L 184 3322 
L 691 3322 
L 691 4353 
L 1269 4353 
L 1269 3322 
L 2350 3322 
L 2350 2988 
L 1269 2988 
L 1269 878 
Q 1269 456 1350 337 
Q 1431 219 1650 219 
Q 1875 219 1978 351 
Q 2081 484 2088 781 
L 2522 781 
Q 2497 328 2275 118 
Q 2053 -91 1600 -91 
Q 1103 -91 897 129 
Q 691 350 691 878 
L 691 2988 
z
" transform="scale(0.015625)"/>
       <path id="DejaVuSerif-4b" d="M 263 0 
L 263 331 
L 781 331 
L 781 4531 
L 231 4531 
L 231 4863 
L 1356 4863 
L 1356 2731 
Q 1516 3069 1770 3241 
Q 2025 3413 2363 3413 
Q 2913 3413 3172 3097 
Q 3431 2781 3431 2113 
L 3431 331 
L 3944 331 
L 3944 0 
L 2356 0 
L 2356 331 
L 2853 331 
L 2853 1931 
Q 2853 2541 2704 2764 
Q 2556 2988 2175 2988 
Q 1775 2988 1565 2697 
Q 1356 2406 1356 1850 
L 1356 331 
L 1856 331 
L 1856 0 
L 263 0 
z
" transform="scale(0.015625)"/>
       <path id="DejaVuSerif-Italic-55" d="M 3375 3328 
L 3213 2497 
L 2881 2497 
Q 2891 2559 2891 2613 
Q 2891 2775 2816 2866 
Q 2719 2988 2484 2988 
Q 2059 2988 1775 2694 
Q 1491 2400 1384 1850 
L 1025 0 
L 450 0 
L 1031 2994 
L 481 2994 
L 544 3322 
L 1669 3322 
L 1556 2731 
Q 1791 3078 2089 3245 
Q 2388 3413 2769 3413 
Q 2909 3413 3059 3391 
Q 3209 3369 3375 3328 
z
" transform="scale(0.015625)"/>
       <path id="DejaVuSerif-44" d="M 2547 1044 
L 2547 1747 
L 1806 1747 
Q 1378 1747 1168 1562 
Q 959 1378 959 997 
Q 959 650 1171 447 
Q 1384 244 1747 244 
Q 2106 244 2326 466 
Q 2547 688 2547 1044 
z
M 3122 2075 
L 3122 331 
L 3634 331 
L 3634 0 
L 2547 0 
L 2547 359 
Q 2356 128 2106 18 
Q 1856 -91 1522 -91 
Q 969 -91 644 203 
Q 319 497 319 997 
Q 319 1513 691 1797 
Q 1063 2081 1741 2081 
L 2547 2081 
L 2547 2309 
Q 2547 2688 2317 2895 
Q 2088 3103 1672 3103 
Q 1328 3103 1125 2947 
Q 922 2791 872 2484 
L 575 2484 
L 575 3156 
Q 875 3284 1158 3348 
Q 1441 3413 1709 3413 
Q 2400 3413 2761 3070 
Q 3122 2728 3122 2075 
z
" transform="scale(0.015625)"/>
       <path id="DejaVuSerif-59" d="M 1581 0 
L 359 2988 
L -19 2988 
L -19 3322 
L 1509 3322 
L 1509 2988 
L 978 2988 
L 1913 703 
L 2847 2988 
L 2350 2988 
L 2350 3322 
L 3597 3322 
L 3597 2988 
L 3225 2988 
L 2003 0 
L 1581 0 
z
" transform="scale(0.015625)"/>
       <path id="DejaVuSerif-4f" d="M 1313 331 
L 1856 331 
L 1856 0 
L 184 0 
L 184 331 
L 738 331 
L 738 4531 
L 184 4531 
L 184 4863 
L 1313 4863 
L 1313 331 
z
" transform="scale(0.015625)"/>
       <path id="DejaVuSerif-58" d="M 2266 3322 
L 3341 3322 
L 3341 331 
L 3884 331 
L 3884 0 
L 2766 0 
L 2766 588 
Q 2606 256 2353 82 
Q 2100 -91 1766 -91 
Q 1213 -91 952 223 
Q 691 538 691 1209 
L 691 2988 
L 172 2988 
L 172 3322 
L 1269 3322 
L 1269 1388 
Q 1269 781 1417 556 
Q 1566 331 1947 331 
Q 2347 331 2556 625 
Q 2766 919 2766 1478 
L 2766 2988 
L 2266 2988 
L 2266 3322 
z
" transform="scale(0.015625)"/>
       <path id="DejaVuSerif-4c" d="M 622 4353 
Q 622 4497 726 4603 
Q 831 4709 978 4709 
Q 1122 4709 1226 4603 
Q 1331 4497 1331 4353 
Q 1331 4206 1228 4103 
Q 1125 4000 978 4000 
Q 831 4000 726 4103 
Q 622 4206 622 4353 
z
M 1356 331 
L 1900 331 
L 1900 0 
L 231 0 
L 231 331 
L 781 331 
L 781 2988 
L 231 2988 
L 231 3322 
L 1356 3322 
L 1356 331 
z
" transform="scale(0.015625)"/>
       <path id="DejaVuSerif-51" d="M 263 0 
L 263 331 
L 781 331 
L 781 2988 
L 231 2988 
L 231 3322 
L 1356 3322 
L 1356 2731 
Q 1516 3069 1770 3241 
Q 2025 3413 2363 3413 
Q 2913 3413 3172 3097 
Q 3431 2781 3431 2113 
L 3431 331 
L 3944 331 
L 3944 0 
L 2356 0 
L 2356 331 
L 2853 331 
L 2853 1931 
Q 2853 2541 2703 2767 
Q 2553 2994 2175 2994 
Q 1775 2994 1565 2701 
Q 1356 2409 1356 1850 
L 1356 331 
L 1856 331 
L 1856 0 
L 263 0 
z
" transform="scale(0.015625)"/>
      </defs>
      <use xlink:href="#DejaVuSerif-2f" transform="translate(0 0.015625)"/>
      <use xlink:href="#DejaVuSerif-52" transform="translate(66.40625 0.015625)"/>
      <use xlink:href="#DejaVuSerif-52" transform="translate(126.611328 0.015625)"/>
      <use xlink:href="#DejaVuSerif-53" transform="translate(186.816406 0.015625)"/>
      <use xlink:href="#DejaVuSerif-3" transform="translate(250.830078 0.015625)"/>
      <use xlink:href="#DejaVuSerif-47" transform="translate(282.617188 0.015625)"/>
      <use xlink:href="#DejaVuSerif-48" transform="translate(346.630859 0.015625)"/>
      <use xlink:href="#DejaVuSerif-53" transform="translate(405.810547 0.015625)"/>
      <use xlink:href="#DejaVuSerif-57" transform="translate(469.824219 0.015625)"/>
      <use xlink:href="#DejaVuSerif-4b" transform="translate(510.009766 0.015625)"/>
      <use xlink:href="#DejaVuSerif-3" transform="translate(574.414062 0.015625)"/>
      <use xlink:href="#DejaVuSerif-Italic-55" transform="translate(606.201172 0.015625)"/>
      <use xlink:href="#DejaVuSerif-3" transform="translate(654.003906 0.015625)"/>
      <use xlink:href="#DejaVuSerif-44" transform="translate(685.791016 0.015625)"/>
      <use xlink:href="#DejaVuSerif-57" transform="translate(745.410156 0.015625)"/>
      <use xlink:href="#DejaVuSerif-3" transform="translate(785.595703 0.015625)"/>
      <use xlink:href="#DejaVuSerif-48" transform="translate(817.382812 0.015625)"/>
      <use xlink:href="#DejaVuSerif-59" transform="translate(876.5625 0.015625)"/>
      <use xlink:href="#DejaVuSerif-44" transform="translate(933.056641 0.015625)"/>
      <use xlink:href="#DejaVuSerif-4f" transform="translate(992.675781 0.015625)"/>
      <use xlink:href="#DejaVuSerif-58" transform="translate(1024.658203 0.015625)"/>
      <use xlink:href="#DejaVuSerif-44" transform="translate(1089.0625 0.015625)"/>
      <use xlink:href="#DejaVuSerif-57" transform="translate(1148.681641 0.015625)"/>
      <use xlink:href="#DejaVuSerif-4c" transform="translate(1188.867188 0.015625)"/>
      <use xlink:href="#DejaVuSerif-52" transform="translate(1220.849609 0.015625)"/>
      <use xlink:href="#DejaVuSerif-51" transform="translate(1281.054688 0.015625)"/>
     </g>
    </g>
   </g>
   <g id="matplotlib.axis_2">
    <g id="ytick_1">
     <g id="line2d_7">
      <path d="M 42.816328 237.769847 
L 377.616328 237.769847 
" clip-path="url(#pb8fa564daa)" style="fill: none; stroke-dasharray: 0.6,0.99; stroke-dashoffset: 0; stroke: #c8c8c8; stroke-width: 0.6"/>
     </g>
     <g id="line2d_8">
      <defs>
       <path id="m1992898997" d="M 0 0 
L -3 0 
" style="stroke: #000000; stroke-width: 0.8"/>
      </defs>
      <g>
       <use xlink:href="#m1992898997" x="42.816328" y="237.769847" style="stroke: #000000; stroke-width: 0.8"/>
      </g>
     </g>
     <g id="text_5">
      <!-- −50 -->
      <g transform="translate(17.322109 241.188793) scale(0.09 -0.09)">
       <defs>
        <path id="DejaVuSerif-8cf" d="M 678 2259 
L 4684 2259 
L 4684 1753 
L 678 1753 
L 678 2259 
z
" transform="scale(0.015625)"/>
        <path id="DejaVuSerif-18" d="M 3219 4666 
L 3219 4153 
L 1081 4153 
L 1081 2816 
Q 1244 2928 1461 2984 
Q 1678 3041 1947 3041 
Q 2703 3041 3140 2622 
Q 3578 2203 3578 1478 
Q 3578 738 3136 323 
Q 2694 -91 1894 -91 
Q 1572 -91 1234 -12 
Q 897 66 544 225 
L 544 1131 
L 897 1131 
Q 925 688 1179 453 
Q 1434 219 1894 219 
Q 2388 219 2653 544 
Q 2919 869 2919 1478 
Q 2919 2084 2655 2407 
Q 2391 2731 1894 2731 
Q 1613 2731 1398 2631 
Q 1184 2531 1019 2322 
L 750 2322 
L 750 4666 
L 3219 4666 
z
" transform="scale(0.015625)"/>
        <path id="DejaVuSerif-13" d="M 2034 219 
Q 2513 219 2750 744 
Q 2988 1269 2988 2328 
Q 2988 3391 2750 3916 
Q 2513 4441 2034 4441 
Q 1556 4441 1318 3916 
Q 1081 3391 1081 2328 
Q 1081 1269 1318 744 
Q 1556 219 2034 219 
z
M 2034 -91 
Q 1275 -91 848 546 
Q 422 1184 422 2328 
Q 422 3475 848 4112 
Q 1275 4750 2034 4750 
Q 2797 4750 3222 4112 
Q 3647 3475 3647 2328 
Q 3647 1184 3222 546 
Q 2797 -91 2034 -91 
z
" transform="scale(0.015625)"/>
       </defs>
       <use xlink:href="#DejaVuSerif-8cf"/>
       <use xlink:href="#DejaVuSerif-18" transform="translate(83.796875 0)"/>
       <use xlink:href="#DejaVuSerif-13" transform="translate(147.421875 0)"/>
      </g>
     </g>
    </g>
    <g id="ytick_2">
     <g id="line2d_9">
      <path d="M 42.816328 200.506897 
L 377.616328 200.506897 
" clip-path="url(#pb8fa564daa)" style="fill: none; stroke-dasharray: 0.6,0.99; stroke-dashoffset: 0; stroke: #c8c8c8; stroke-width: 0.6"/>
     </g>
     <g id="line2d_10">
      <g>
       <use xlink:href="#m1992898997" x="42.816328" y="200.506897" style="stroke: #000000; stroke-width: 0.8"/>
      </g>
     </g>
     <g id="text_6">
      <!-- −40 -->
      <g transform="translate(17.322109 203.925842) scale(0.09 -0.09)">
       <use xlink:href="#DejaVuSerif-8cf"/>
       <use xlink:href="#DejaVuSerif-17" transform="translate(83.796875 0)"/>
       <use xlink:href="#DejaVuSerif-13" transform="translate(147.421875 0)"/>
      </g>
     </g>
    </g>
    <g id="ytick_3">
     <g id="line2d_11">
      <path d="M 42.816328 163.243946 
L 377.616328 163.243946 
" clip-path="url(#pb8fa564daa)" style="fill: none; stroke-dasharray: 0.6,0.99; stroke-dashoffset: 0; stroke: #c8c8c8; stroke-width: 0.6"/>
     </g>
     <g id="line2d_12">
      <g>
       <use xlink:href="#m1992898997" x="42.816328" y="163.243946" style="stroke: #000000; stroke-width: 0.8"/>
      </g>
     </g>
     <g id="text_7">
      <!-- −30 -->
      <g transform="translate(17.322109 166.662891) scale(0.09 -0.09)">
       <use xlink:href="#DejaVuSerif-8cf"/>
       <use xlink:href="#DejaVuSerif-16" transform="translate(83.796875 0)"/>
       <use xlink:href="#DejaVuSerif-13" transform="translate(147.421875 0)"/>
      </g>
     </g>
    </g>
    <g id="ytick_4">
     <g id="line2d_13">
      <path d="M 42.816328 125.980995 
L 377.616328 125.980995 
" clip-path="url(#pb8fa564daa)" style="fill: none; stroke-dasharray: 0.6,0.99; stroke-dashoffset: 0; stroke: #c8c8c8; stroke-width: 0.6"/>
     </g>
     <g id="line2d_14">
      <g>
       <use xlink:href="#m1992898997" x="42.816328" y="125.980995" style="stroke: #000000; stroke-width: 0.8"/>
      </g>
     </g>
     <g id="text_8">
      <!-- −20 -->
      <g transform="translate(17.322109 129.39994) scale(0.09 -0.09)">
       <use xlink:href="#DejaVuSerif-8cf"/>
       <use xlink:href="#DejaVuSerif-15" transform="translate(83.796875 0)"/>
       <use xlink:href="#DejaVuSerif-13" transform="translate(147.421875 0)"/>
      </g>
     </g>
    </g>
    <g id="ytick_5">
     <g id="line2d_15">
      <path d="M 42.816328 88.718044 
L 377.616328 88.718044 
" clip-path="url(#pb8fa564daa)" style="fill: none; stroke-dasharray: 0.6,0.99; stroke-dashoffset: 0; stroke: #c8c8c8; stroke-width: 0.6"/>
     </g>
     <g id="line2d_16">
      <g>
       <use xlink:href="#m1992898997" x="42.816328" y="88.718044" style="stroke: #000000; stroke-width: 0.8"/>
      </g>
     </g>
     <g id="text_9">
      <!-- −10 -->
      <g transform="translate(17.322109 92.136989) scale(0.09 -0.09)">
       <use xlink:href="#DejaVuSerif-8cf"/>
       <use xlink:href="#DejaVuSerif-14" transform="translate(83.796875 0)"/>
       <use xlink:href="#DejaVuSerif-13" transform="translate(147.421875 0)"/>
      </g>
     </g>
    </g>
    <g id="ytick_6">
     <g id="line2d_17">
      <path d="M 42.816328 51.455093 
L 377.616328 51.455093 
" clip-path="url(#pb8fa564daa)" style="fill: none; stroke-dasharray: 0.6,0.99; stroke-dashoffset: 0; stroke: #c8c8c8; stroke-width: 0.6"/>
     </g>
     <g id="line2d_18">
      <g>
       <use xlink:href="#m1992898997" x="42.816328" y="51.455093" style="stroke: #000000; stroke-width: 0.8"/>
      </g>
     </g>
     <g id="text_10">
      <!-- 0 -->
      <g transform="translate(30.590078 54.874039) scale(0.09 -0.09)">
       <use xlink:href="#DejaVuSerif-13"/>
      </g>
     </g>
    </g>
    <g id="text_11">
     <!-- Accuracy relative to own $r$ = 16 score (points) -->
     <g transform="translate(11.16 237.050437) rotate(-90) scale(0.09 -0.09)">
      <defs>
       <path id="DejaVuSerif-24" d="M 1281 1691 
L 2994 1691 
L 2138 3909 
L 1281 1691 
z
M -38 0 
L -38 331 
L 372 331 
L 2034 4666 
L 2559 4666 
L 4225 331 
L 4684 331 
L 4684 0 
L 2988 0 
L 2988 331 
L 3506 331 
L 3116 1356 
L 1153 1356 
L 763 331 
L 1275 331 
L 1275 0 
L -38 0 
z
" transform="scale(0.015625)"/>
       <path id="DejaVuSerif-46" d="M 3291 997 
Q 3169 466 2822 187 
Q 2475 -91 1925 -91 
Q 1200 -91 759 389 
Q 319 869 319 1663 
Q 319 2459 759 2936 
Q 1200 3413 1925 3413 
Q 2241 3413 2553 3339 
Q 2866 3266 3181 3116 
L 3181 2266 
L 2847 2266 
Q 2781 2703 2561 2903 
Q 2341 3103 1931 3103 
Q 1466 3103 1228 2742 
Q 991 2381 991 1663 
Q 991 944 1227 581 
Q 1463 219 1931 219 
Q 2303 219 2525 412 
Q 2747 606 2828 997 
L 3291 997 
z
" transform="scale(0.015625)"/>
       <path id="DejaVuSerif-55" d="M 3059 3328 
L 3059 2497 
L 2728 2497 
Q 2713 2744 2591 2866 
Q 2469 2988 2234 2988 
Q 1809 2988 1582 2694 
Q 1356 2400 1356 1850 
L 1356 331 
L 2022 331 
L 2022 0 
L 263 0 
L 263 331 
L 781 331 
L 781 2994 
L 231 2994 
L 231 3322 
L 1356 3322 
L 1356 2731 
Q 1525 3078 1790 3245 
Q 2056 3413 2438 3413 
Q 2578 3413 2733 3391 
Q 2888 3369 3059 3328 
z
" transform="scale(0.015625)"/>
       <path id="DejaVuSerif-5c" d="M 1381 -609 
L 1600 -56 
L 359 2988 
L -19 2988 
L -19 3322 
L 1509 3322 
L 1509 2988 
L 978 2988 
L 1913 703 
L 2847 2988 
L 2350 2988 
L 2350 3322 
L 3597 3322 
L 3597 2988 
L 3225 2988 
L 1703 -750 
Q 1547 -1138 1356 -1280 
Q 1166 -1422 819 -1422 
Q 672 -1422 517 -1397 
Q 363 -1372 206 -1325 
L 206 -691 
L 500 -691 
Q 519 -903 608 -995 
Q 697 -1088 884 -1088 
Q 1056 -1088 1161 -992 
Q 1266 -897 1381 -609 
z
" transform="scale(0.015625)"/>
       <path id="DejaVuSerif-5a" d="M 3072 3322 
L 3922 728 
L 4672 2988 
L 4191 2988 
L 4191 3322 
L 5394 3322 
L 5394 2988 
L 5025 2988 
L 4038 0 
L 3559 0 
L 2741 2484 
L 1919 0 
L 1459 0 
L 475 2988 
L 103 2988 
L 103 3322 
L 1606 3322 
L 1606 2988 
L 1069 2988 
L 1813 728 
L 2669 3322 
L 3072 3322 
z
" transform="scale(0.015625)"/>
       <path id="DejaVuSerif-20" d="M 678 2894 
L 4684 2894 
L 4684 2394 
L 678 2394 
L 678 2894 
z
M 678 1619 
L 4684 1619 
L 4684 1119 
L 678 1119 
L 678 1619 
z
" transform="scale(0.015625)"/>
       <path id="DejaVuSerif-56" d="M 359 184 
L 359 959 
L 691 959 
Q 703 588 923 403 
Q 1144 219 1575 219 
Q 1963 219 2166 364 
Q 2369 509 2369 788 
Q 2369 1006 2220 1140 
Q 2072 1275 1594 1428 
L 1178 1569 
Q 750 1706 558 1912 
Q 366 2119 366 2438 
Q 366 2894 700 3153 
Q 1034 3413 1625 3413 
Q 1888 3413 2178 3344 
Q 2469 3275 2778 3144 
L 2778 2419 
L 2447 2419 
Q 2434 2741 2221 2922 
Q 2009 3103 1644 3103 
Q 1281 3103 1095 2975 
Q 909 2847 909 2591 
Q 909 2381 1050 2254 
Q 1191 2128 1613 1997 
L 2069 1856 
Q 2541 1709 2748 1489 
Q 2956 1269 2956 922 
Q 2956 450 2595 179 
Q 2234 -91 1600 -91 
Q 1278 -91 972 -22 
Q 666 47 359 184 
z
" transform="scale(0.015625)"/>
       <path id="DejaVuSerif-b" d="M 2041 -997 
Q 1281 -656 893 83 
Q 506 822 506 1931 
Q 506 3044 893 3783 
Q 1281 4522 2041 4863 
L 2041 4556 
Q 1559 4225 1350 3623 
Q 1141 3022 1141 1931 
Q 1141 844 1350 242 
Q 1559 -359 2041 -691 
L 2041 -997 
z
" transform="scale(0.015625)"/>
       <path id="DejaVuSerif-c" d="M 453 -997 
L 453 -691 
Q 934 -359 1145 242 
Q 1356 844 1356 1931 
Q 1356 3022 1145 3623 
Q 934 4225 453 4556 
L 453 4863 
Q 1216 4522 1603 3783 
Q 1991 3044 1991 1931 
Q 1991 822 1603 83 
Q 1216 -656 453 -997 
z
" transform="scale(0.015625)"/>
      </defs>
      <use xlink:href="#DejaVuSerif-24" transform="translate(0 0.015625)"/>
      <use xlink:href="#DejaVuSerif-46" transform="translate(72.216797 0.015625)"/>
      <use xlink:href="#DejaVuSerif-46" transform="translate(128.222656 0.015625)"/>
      <use xlink:href="#DejaVuSerif-58" transform="translate(184.228516 0.015625)"/>
      <use xlink:href="#DejaVuSerif-55" transform="translate(248.632812 0.015625)"/>
      <use xlink:href="#DejaVuSerif-44" transform="translate(296.435547 0.015625)"/>
      <use xlink:href="#DejaVuSerif-46" transform="translate(356.054688 0.015625)"/>
      <use xlink:href="#DejaVuSerif-5c" transform="translate(412.060547 0.015625)"/>
      <use xlink:href="#DejaVuSerif-3" transform="translate(468.554688 0.015625)"/>
      <use xlink:href="#DejaVuSerif-55" transform="translate(500.341797 0.015625)"/>
      <use xlink:href="#DejaVuSerif-48" transform="translate(548.144531 0.015625)"/>
      <use xlink:href="#DejaVuSerif-4f" transform="translate(607.324219 0.015625)"/>
      <use xlink:href="#DejaVuSerif-44" transform="translate(639.306641 0.015625)"/>
      <use xlink:href="#DejaVuSerif-57" transform="translate(698.925781 0.015625)"/>
      <use xlink:href="#DejaVuSerif-4c" transform="translate(739.111328 0.015625)"/>
      <use xlink:href="#DejaVuSerif-59" transform="translate(771.09375 0.015625)"/>
      <use xlink:href="#DejaVuSerif-48" transform="translate(827.587891 0.015625)"/>
      <use xlink:href="#DejaVuSerif-3" transform="translate(886.767578 0.015625)"/>
      <use xlink:href="#DejaVuSerif-57" transform="translate(918.554688 0.015625)"/>
      <use xlink:href="#DejaVuSerif-52" transform="translate(958.740234 0.015625)"/>
      <use xlink:href="#DejaVuSerif-3" transform="translate(1018.945312 0.015625)"/>
      <use xlink:href="#DejaVuSerif-52" transform="translate(1050.732422 0.015625)"/>
      <use xlink:href="#DejaVuSerif-5a" transform="translate(1110.9375 0.015625)"/>
      <use xlink:href="#DejaVuSerif-51" transform="translate(1196.533203 0.015625)"/>
      <use xlink:href="#DejaVuSerif-3" transform="translate(1260.9375 0.015625)"/>
      <use xlink:href="#DejaVuSerif-Italic-55" transform="translate(1292.724609 0.015625)"/>
      <use xlink:href="#DejaVuSerif-3" transform="translate(1340.527344 0.015625)"/>
      <use xlink:href="#DejaVuSerif-20" transform="translate(1372.314453 0.015625)"/>
      <use xlink:href="#DejaVuSerif-3" transform="translate(1456.103516 0.015625)"/>
      <use xlink:href="#DejaVuSerif-14" transform="translate(1487.890625 0.015625)"/>
      <use xlink:href="#DejaVuSerif-19" transform="translate(1551.513672 0.015625)"/>
      <use xlink:href="#DejaVuSerif-3" transform="translate(1615.136719 0.015625)"/>
      <use xlink:href="#DejaVuSerif-56" transform="translate(1646.923828 0.015625)"/>
      <use xlink:href="#DejaVuSerif-46" transform="translate(1698.242188 0.015625)"/>
      <use xlink:href="#DejaVuSerif-52" transform="translate(1754.248047 0.015625)"/>
      <use xlink:href="#DejaVuSerif-55" transform="translate(1814.453125 0.015625)"/>
      <use xlink:href="#DejaVuSerif-48" transform="translate(1862.255859 0.015625)"/>
      <use xlink:href="#DejaVuSerif-3" transform="translate(1921.435547 0.015625)"/>
      <use xlink:href="#DejaVuSerif-b" transform="translate(1953.222656 0.015625)"/>
      <use xlink:href="#DejaVuSerif-53" transform="translate(1992.236328 0.015625)"/>
      <use xlink:href="#DejaVuSerif-52" transform="translate(2056.25 0.015625)"/>
      <use xlink:href="#DejaVuSerif-4c" transform="translate(2116.455078 0.015625)"/>
      <use xlink:href="#DejaVuSerif-51" transform="translate(2148.4375 0.015625)"/>
      <use xlink:href="#DejaVuSerif-57" transform="translate(2212.841797 0.015625)"/>
      <use xlink:href="#DejaVuSerif-56" transform="translate(2253.027344 0.015625)"/>
      <use xlink:href="#DejaVuSerif-c" transform="translate(2304.345703 0.015625)"/>
     </g>
    </g>
   </g>
   <g id="line2d_19">
    <path d="M 42.816328 51.455093 
L 377.616328 51.455093 
" clip-path="url(#pb8fa564daa)" style="fill: none; stroke-dasharray: 3.7,1.6; stroke-dashoffset: 0; stroke: #000000"/>
   </g>
   <g id="patch_3">
    <path d="M 42.816328 245.222437 
L 42.816328 17.918437 
" style="fill: none; stroke: #000000; stroke-linejoin: miter; stroke-linecap: square"/>
   </g>
   <g id="patch_4">
    <path d="M 377.616328 245.222437 
L 377.616328 17.918437 
" style="fill: none; stroke: #000000; stroke-linejoin: miter; stroke-linecap: square"/>
   </g>
   <g id="patch_5">
    <path d="M 42.816328 245.222437 
L 377.616328 245.222437 
" style="fill: none; stroke: #000000; stroke-linejoin: miter; stroke-linecap: square"/>
   </g>
   <g id="patch_6">
    <path d="M 42.816328 17.918437 
L 377.616328 17.918437 
" style="fill: none; stroke: #000000; stroke-linejoin: miter; stroke-linecap: square"/>
   </g>
   <g id="line2d_20">
    <path d="M 63.525606 51.455093 
L 201.587462 141.631434 
L 339.649318 216.157336 
" clip-path="url(#pb8fa564daa)" style="fill: none; stroke: #d96f5a; stroke-width: 1.4; stroke-linecap: square"/>
    <defs>
     <path id="m5605e9b696" d="M 0 3.5 
C 0.928211 3.5 1.81853 3.131218 2.474874 2.474874 
C 3.131218 1.81853 3.5 0.928211 3.5 0 
C 3.5 -0.928211 3.131218 -1.81853 2.474874 -2.474874 
C 1.81853 -3.131218 0.928211 -3.5 0 -3.5 
C -0.928211 -3.5 -1.81853 -3.131218 -2.474874 -2.474874 
C -3.131218 -1.81853 -3.5 -0.928211 -3.5 0 
C -3.5 0.928211 -3.131218 1.81853 -2.474874 2.474874 
C -1.81853 3.131218 -0.928211 3.5 0 3.5 
z
" style="stroke: #000000; stroke-width: 0.7"/>
    </defs>
    <g clip-path="url(#pb8fa564daa)">
     <use xlink:href="#m5605e9b696" x="63.525606" y="51.455093" style="fill: #d96f5a; stroke: #000000; stroke-width: 0.7"/>
     <use xlink:href="#m5605e9b696" x="201.587462" y="141.631434" style="fill: #d96f5a; stroke: #000000; stroke-width: 0.7"/>
     <use xlink:href="#m5605e9b696" x="339.649318" y="216.157336" style="fill: #d96f5a; stroke: #000000; stroke-width: 0.7"/>
    </g>
   </g>
   <g id="line2d_21">
    <path d="M 63.525606 51.455093 
L 201.587462 104.368483 
L 339.649318 172.187054 
" clip-path="url(#pb8fa564daa)" style="fill: none; stroke: #6baed6; stroke-width: 1.4; stroke-linecap: square"/>
    <defs>
     <path id="mf65bdcea5b" d="M 0 3.5 
C 0.928211 3.5 1.81853 3.131218 2.474874 2.474874 
C 3.131218 1.81853 3.5 0.928211 3.5 0 
C 3.5 -0.928211 3.131218 -1.81853 2.474874 -2.474874 
C 1.81853 -3.131218 0.928211 -3.5 0 -3.5 
C -0.928211 -3.5 -1.81853 -3.131218 -2.474874 -2.474874 
C -3.131218 -1.81853 -3.5 -0.928211 -3.5 0 
C -3.5 0.928211 -3.131218 1.81853 -2.474874 2.474874 
C -1.81853 3.131218 -0.928211 3.5 0 3.5 
z
" style="stroke: #000000; stroke-width: 0.7"/>
    </defs>
    <g clip-path="url(#pb8fa564daa)">
     <use xlink:href="#mf65bdcea5b" x="63.525606" y="51.455093" style="fill: #6baed6; stroke: #000000; stroke-width: 0.7"/>
     <use xlink:href="#mf65bdcea5b" x="201.587462" y="104.368483" style="fill: #6baed6; stroke: #000000; stroke-width: 0.7"/>
     <use xlink:href="#mf65bdcea5b" x="339.649318" y="172.187054" style="fill: #6baed6; stroke: #000000; stroke-width: 0.7"/>
    </g>
   </g>
   <g id="patch_7">
    <path d="M 201.587462 115.919998 
Q 201.587462 111.144 201.587462 107.486035 
" style="fill: none; stroke: #000000; stroke-linecap: round"/>
    <path d="M 199.587462 111.486035 
L 201.587462 107.486035 
L 203.587462 111.486035 
" style="fill: none; stroke: #000000; stroke-linecap: round"/>
   </g>
   <g id="patch_8">
    <path d="M 201.587462 130.079919 
Q 201.587462 134.855918 201.587462 138.513883 
" style="fill: none; stroke: #000000; stroke-linecap: round"/>
    <path d="M 203.587462 134.513883 
L 201.587462 138.513883 
L 199.587462 134.513883 
" style="fill: none; stroke: #000000; stroke-linecap: round"/>
   </g>
   <g id="text_12">
    <!-- +10.0 -->
    <g transform="translate(187.675353 125.207967) scale(0.085 -0.085)">
     <defs>
      <path id="DejaVuSerif-Bold-e" d="M 3041 4013 
L 3041 2369 
L 4684 2369 
L 4684 1650 
L 3041 1650 
L 3041 6 
L 2322 6 
L 2322 1650 
L 678 1650 
L 678 2369 
L 2322 2369 
L 2322 4013 
L 3041 4013 
z
" transform="scale(0.015625)"/>
      <path id="DejaVuSerif-Bold-14" d="M 878 0 
L 878 378 
L 1753 378 
L 1753 4153 
L 781 3578 
L 781 4044 
L 1953 4750 
L 2938 4750 
L 2938 378 
L 3816 378 
L 3816 0 
L 878 0 
z
" transform="scale(0.015625)"/>
      <path id="DejaVuSerif-Bold-13" d="M 2228 275 
Q 2603 275 2742 615 
Q 2881 956 2881 2328 
Q 2881 3691 2742 4037 
Q 2603 4384 2228 4384 
Q 1853 4384 1714 4043 
Q 1575 3703 1575 2328 
Q 1575 956 1714 615 
Q 1853 275 2228 275 
z
M 2228 -91 
Q 1294 -91 797 532 
Q 300 1156 300 2328 
Q 300 3500 797 4125 
Q 1294 4750 2228 4750 
Q 3159 4750 3656 4125 
Q 4153 3500 4153 2328 
Q 4153 1156 3656 532 
Q 3159 -91 2228 -91 
z
" transform="scale(0.015625)"/>
      <path id="DejaVuSerif-Bold-11" d="M 519 506 
Q 519 750 694 925 
Q 869 1100 1113 1100 
Q 1359 1100 1534 925 
Q 1709 750 1709 506 
Q 1709 259 1534 84 
Q 1359 -91 1113 -91 
Q 869 -91 694 84 
Q 519 259 519 506 
z
" transform="scale(0.015625)"/>
     </defs>
     <use xlink:href="#DejaVuSerif-Bold-e"/>
     <use xlink:href="#DejaVuSerif-Bold-14" transform="translate(83.796875 0)"/>
     <use xlink:href="#DejaVuSerif-Bold-13" transform="translate(153.375 0)"/>
     <use xlink:href="#DejaVuSerif-Bold-11" transform="translate(222.953125 0)"/>
     <use xlink:href="#DejaVuSerif-Bold-13" transform="translate(257.765625 0)"/>
    </g>
   </g>
   <g id="patch_9">
    <path d="M 339.649318 187.092234 
Q 339.649318 180.638539 339.649318 175.302877 
" style="fill: none; stroke: #000000; stroke-linecap: round"/>
    <path d="M 337.649318 179.302877 
L 339.649318 175.302877 
L 341.649318 179.302877 
" style="fill: none; stroke: #000000; stroke-linecap: round"/>
   </g>
   <g id="patch_10">
    <path d="M 339.649318 201.252156 
Q 339.649318 207.705851 339.649318 213.041513 
" style="fill: none; stroke: #000000; stroke-linecap: round"/>
    <path d="M 341.649318 209.041513 
L 339.649318 213.041513 
L 337.649318 209.041513 
" style="fill: none; stroke: #000000; stroke-linecap: round"/>
   </g>
   <g id="text_13">
    <!-- +11.8 -->
    <g transform="translate(325.737208 196.380203) scale(0.085 -0.085)">
     <defs>
      <path id="DejaVuSerif-Bold-1b" d="M 2975 2484 
Q 3531 2394 3820 2075 
Q 4109 1756 4109 1241 
Q 4109 597 3623 253 
Q 3138 -91 2222 -91 
Q 1306 -91 818 253 
Q 331 597 331 1241 
Q 331 1756 622 2075 
Q 913 2394 1466 2484 
Q 975 2597 731 2861 
Q 488 3125 488 3531 
Q 488 4125 931 4437 
Q 1375 4750 2222 4750 
Q 3066 4750 3511 4437 
Q 3956 4125 3956 3531 
Q 3956 3125 3711 2861 
Q 3466 2597 2975 2484 
z
M 2747 3519 
Q 2747 4013 2628 4198 
Q 2509 4384 2222 4384 
Q 1931 4384 1814 4198 
Q 1697 4013 1697 3519 
Q 1697 3028 1814 2845 
Q 1931 2663 2222 2663 
Q 2513 2663 2630 2845 
Q 2747 3028 2747 3519 
z
M 2869 1294 
Q 2869 1866 2723 2081 
Q 2578 2297 2222 2297 
Q 1863 2297 1719 2081 
Q 1575 1866 1575 1294 
Q 1575 716 1720 495 
Q 1866 275 2222 275 
Q 2575 275 2722 495 
Q 2869 716 2869 1294 
z
" transform="scale(0.015625)"/>
     </defs>
     <use xlink:href="#DejaVuSerif-Bold-e"/>
     <use xlink:href="#DejaVuSerif-Bold-14" transform="translate(83.796875 0)"/>
     <use xlink:href="#DejaVuSerif-Bold-14" transform="translate(153.375 0)"/>
     <use xlink:href="#DejaVuSerif-Bold-11" transform="translate(222.953125 0)"/>
     <use xlink:href="#DejaVuSerif-Bold-1b" transform="translate(257.765625 0)"/>
    </g>
   </g>
   <g id="text_14">
    <!-- arrows: $W(r)$ = GRPO falloff $-$ W-A falloff -->
    <g transform="translate(69.565813 33.412162) scale(0.08 -0.08)">
     <defs>
      <path id="DejaVuSerif-1d" d="M 666 325 
Q 666 500 786 622 
Q 906 744 1081 744 
Q 1256 744 1376 622 
Q 1497 500 1497 325 
Q 1497 150 1378 29 
Q 1259 -91 1081 -91 
Q 903 -91 784 29 
Q 666 150 666 325 
z
M 666 2363 
Q 666 2538 786 2658 
Q 906 2778 1081 2778 
Q 1259 2778 1378 2659 
Q 1497 2541 1497 2363 
Q 1497 2184 1378 2065 
Q 1259 1947 1081 1947 
Q 906 1947 786 2067 
Q 666 2188 666 2363 
z
" transform="scale(0.015625)"/>
      <path id="DejaVuSerif-Italic-3a" d="M 4425 0 
L 3913 0 
L 3581 3794 
L 1775 0 
L 1263 0 
L 881 4331 
L 419 4331 
L 484 4666 
L 2188 4666 
L 2122 4331 
L 1541 4331 
L 1844 884 
L 3641 4666 
L 4147 4666 
L 4484 844 
L 6141 4331 
L 5603 4331 
L 5669 4666 
L 7013 4666 
L 6947 4331 
L 6488 4331 
L 4425 0 
z
" transform="scale(0.015625)"/>
      <path id="DejaVuSerif-2a" d="M 4097 3272 
Q 3988 3856 3641 4136 
Q 3294 4416 2675 4416 
Q 1869 4416 1472 3897 
Q 1075 3378 1075 2328 
Q 1075 1300 1484 772 
Q 1894 244 2688 244 
Q 3041 244 3362 331 
Q 3684 419 3975 594 
L 3975 1797 
L 3097 1797 
L 3097 2131 
L 4609 2131 
L 4609 391 
Q 4194 150 3714 29 
Q 3234 -91 2688 -91 
Q 1631 -91 995 570 
Q 359 1231 359 2328 
Q 359 3434 996 4092 
Q 1634 4750 2713 4750 
Q 3113 4750 3539 4658 
Q 3966 4566 4447 4378 
L 4447 3272 
L 4097 3272 
z
" transform="scale(0.015625)"/>
      <path id="DejaVuSerif-35" d="M 3066 2316 
Q 3284 2256 3442 2114 
Q 3600 1972 3725 1716 
L 4403 331 
L 4972 331 
L 4972 0 
L 3872 0 
L 3144 1484 
Q 2934 1916 2759 2042 
Q 2584 2169 2278 2169 
L 1581 2169 
L 1581 331 
L 2241 331 
L 2241 0 
L 353 0 
L 353 331 
L 947 331 
L 947 4331 
L 353 4331 
L 353 4666 
L 2719 4666 
Q 3400 4666 3770 4341 
Q 4141 4016 4141 3419 
Q 4141 2938 3870 2661 
Q 3600 2384 3066 2316 
z
M 1581 2503 
L 2503 2503 
Q 2975 2503 3200 2726 
Q 3425 2950 3425 3419 
Q 3425 3888 3200 4109 
Q 2975 4331 2503 4331 
L 1581 4331 
L 1581 2503 
z
" transform="scale(0.015625)"/>
      <path id="DejaVuSerif-33" d="M 1581 2375 
L 2406 2375 
Q 2872 2375 3115 2626 
Q 3359 2878 3359 3353 
Q 3359 3831 3115 4081 
Q 2872 4331 2406 4331 
L 1581 4331 
L 1581 2375 
z
M 353 0 
L 353 331 
L 947 331 
L 947 4331 
L 353 4331 
L 353 4666 
L 2559 4666 
Q 3259 4666 3668 4311 
Q 4078 3956 4078 3353 
Q 4078 2753 3668 2397 
Q 3259 2041 2559 2041 
L 1581 2041 
L 1581 331 
L 2303 331 
L 2303 0 
L 353 0 
z
" transform="scale(0.015625)"/>
      <path id="DejaVuSerif-32" d="M 2625 244 
Q 3391 244 3781 770 
Q 4172 1297 4172 2328 
Q 4172 3363 3781 3889 
Q 3391 4416 2625 4416 
Q 1856 4416 1465 3889 
Q 1075 3363 1075 2328 
Q 1075 1297 1465 770 
Q 1856 244 2625 244 
z
M 2625 -91 
Q 2150 -91 1751 65 
Q 1353 222 1050 525 
Q 700 875 529 1319 
Q 359 1763 359 2328 
Q 359 2894 529 3339 
Q 700 3784 1050 4134 
Q 1356 4441 1750 4595 
Q 2144 4750 2625 4750 
Q 3641 4750 4266 4084 
Q 4891 3419 4891 2328 
Q 4891 1769 4719 1320 
Q 4547 872 4197 525 
Q 3891 219 3497 64 
Q 3103 -91 2625 -91 
z
" transform="scale(0.015625)"/>
      <path id="DejaVuSerif-49" d="M 2753 4078 
L 2450 4078 
Q 2447 4313 2317 4434 
Q 2188 4556 1941 4556 
Q 1619 4556 1487 4379 
Q 1356 4203 1356 3750 
L 1356 3322 
L 2284 3322 
L 2284 2988 
L 1356 2988 
L 1356 331 
L 2094 331 
L 2094 0 
L 231 0 
L 231 331 
L 781 331 
L 781 2988 
L 231 2988 
L 231 3322 
L 781 3322 
L 781 3738 
Q 781 4294 1070 4578 
Q 1359 4863 1919 4863 
Q 2128 4863 2337 4825 
Q 2547 4788 2753 4709 
L 2753 4078 
z
" transform="scale(0.015625)"/>
      <path id="DejaVuSerif-3a" d="M 4878 0 
L 4366 0 
L 3297 3794 
L 2228 0 
L 1716 0 
L 494 4331 
L 31 4331 
L 31 4666 
L 1734 4666 
L 1734 4331 
L 1153 4331 
L 2125 884 
L 3188 4666 
L 3694 4666 
L 4775 844 
L 5753 4331 
L 5216 4331 
L 5216 4666 
L 6559 4666 
L 6559 4331 
L 6100 4331 
L 4878 0 
z
" transform="scale(0.015625)"/>
      <path id="DejaVuSerif-10" d="M 281 1959 
L 1881 1959 
L 1881 1472 
L 281 1472 
L 281 1959 
z
" transform="scale(0.015625)"/>
     </defs>
     <use xlink:href="#DejaVuSerif-44" transform="translate(0 0.015625)"/>
     <use xlink:href="#DejaVuSerif-55" transform="translate(59.619141 0.015625)"/>
     <use xlink:href="#DejaVuSerif-55" transform="translate(107.421875 0.015625)"/>
     <use xlink:href="#DejaVuSerif-52" transform="translate(155.224609 0.015625)"/>
     <use xlink:href="#DejaVuSerif-5a" transform="translate(215.429688 0.015625)"/>
     <use xlink:href="#DejaVuSerif-56" transform="translate(301.025391 0.015625)"/>
     <use xlink:href="#DejaVuSerif-1d" transform="translate(352.34375 0.015625)"/>
     <use xlink:href="#DejaVuSerif-3" transform="translate(386.035156 0.015625)"/>
     <use xlink:href="#DejaVuSerif-Italic-3a" transform="translate(417.822266 0.015625)"/>
     <use xlink:href="#DejaVuSerif-b" transform="translate(520.605469 0.015625)"/>
     <use xlink:href="#DejaVuSerif-Italic-55" transform="translate(559.619141 0.015625)"/>
     <use xlink:href="#DejaVuSerif-c" transform="translate(607.421875 0.015625)"/>
     <use xlink:href="#DejaVuSerif-3" transform="translate(646.435547 0.015625)"/>
     <use xlink:href="#DejaVuSerif-20" transform="translate(678.222656 0.015625)"/>
     <use xlink:href="#DejaVuSerif-3" transform="translate(762.011719 0.015625)"/>
     <use xlink:href="#DejaVuSerif-2a" transform="translate(793.798828 0.015625)"/>
     <use xlink:href="#DejaVuSerif-35" transform="translate(873.681641 0.015625)"/>
     <use xlink:href="#DejaVuSerif-33" transform="translate(948.974609 0.015625)"/>
     <use xlink:href="#DejaVuSerif-32" transform="translate(1016.259766 0.015625)"/>
     <use xlink:href="#DejaVuSerif-3" transform="translate(1098.242188 0.015625)"/>
     <use xlink:href="#DejaVuSerif-49" transform="translate(1130.029297 0.015625)"/>
     <use xlink:href="#DejaVuSerif-44" transform="translate(1167.041016 0.015625)"/>
     <use xlink:href="#DejaVuSerif-4f" transform="translate(1226.660156 0.015625)"/>
     <use xlink:href="#DejaVuSerif-4f" transform="translate(1258.642578 0.015625)"/>
     <use xlink:href="#DejaVuSerif-52" transform="translate(1290.625 0.015625)"/>
     <use xlink:href="#DejaVuSerif-49" transform="translate(1350.830078 0.015625)"/>
     <use xlink:href="#DejaVuSerif-49" transform="translate(1387.841797 0.015625)"/>
     <use xlink:href="#DejaVuSerif-3" transform="translate(1424.853516 0.015625)"/>
     <use xlink:href="#DejaVuSerif-8cf" transform="translate(1456.640625 0.015625)"/>
     <use xlink:href="#DejaVuSerif-3" transform="translate(1540.429688 0.015625)"/>
     <use xlink:href="#DejaVuSerif-3a" transform="translate(1572.216797 0.015625)"/>
     <use xlink:href="#DejaVuSerif-10" transform="translate(1668 0.015625)"/>
     <use xlink:href="#DejaVuSerif-24" transform="translate(1701.789062 0.015625)"/>
     <use xlink:href="#DejaVuSerif-3" transform="translate(1774.005859 0.015625)"/>
     <use xlink:href="#DejaVuSerif-49" transform="translate(1805.792969 0.015625)"/>
     <use xlink:href="#DejaVuSerif-44" transform="translate(1842.804688 0.015625)"/>
     <use xlink:href="#DejaVuSerif-4f" transform="translate(1902.423828 0.015625)"/>
     <use xlink:href="#DejaVuSerif-4f" transform="translate(1934.40625 0.015625)"/>
     <use xlink:href="#DejaVuSerif-52" transform="translate(1966.388672 0.015625)"/>
     <use xlink:href="#DejaVuSerif-49" transform="translate(2026.59375 0.015625)"/>
     <use xlink:href="#DejaVuSerif-49" transform="translate(2063.605469 0.015625)"/>
    </g>
   </g>
   <g id="text_15">
    <!-- Falloff beyond the deepest RL depth -->
    <g transform="translate(118.262422 11.918437) scale(0.1 -0.1)">
     <defs>
      <path id="DejaVuSerif-29" d="M 353 0 
L 353 331 
L 947 331 
L 947 4331 
L 353 4331 
L 353 4666 
L 4172 4666 
L 4172 3628 
L 3788 3628 
L 3788 4281 
L 1581 4281 
L 1581 2719 
L 3175 2719 
L 3175 3303 
L 3559 3303 
L 3559 1753 
L 3175 1753 
L 3175 2338 
L 1581 2338 
L 1581 331 
L 2328 331 
L 2328 0 
L 353 0 
z
" transform="scale(0.015625)"/>
      <path id="DejaVuSerif-cef" d="M 2963 2984 
L 1356 2988 
L 1356 331 
L 2094 331 
L 2094 0 
L 231 0 
L 231 331 
L 781 331 
L 781 2988 
L 231 2988 
L 231 3322 
L 781 3322 
L 781 3738 
Q 781 4294 1068 4578 
Q 1356 4863 1919 4863 
Q 2125 4863 2334 4825 
Q 2544 4788 2750 4709 
L 2750 4078 
L 2450 4078 
Q 2444 4313 2316 4434 
Q 2188 4556 1938 4556 
Q 1619 4556 1487 4379 
Q 1356 4203 1356 3750 
L 1356 3322 
L 2963 3322 
L 2963 3734 
Q 2963 4291 3250 4575 
Q 3538 4859 4100 4859 
Q 4306 4859 4515 4821 
Q 4725 4784 4931 4706 
L 4931 4075 
L 4631 4075 
Q 4625 4309 4497 4431 
Q 4369 4553 4119 4553 
Q 3800 4553 3669 4376 
Q 3538 4200 3538 3747 
L 3538 3319 
L 4463 3319 
L 4463 2984 
L 3538 2984 
L 3538 328 
L 4275 328 
L 4275 -3 
L 2413 -3 
L 2413 328 
L 2963 328 
L 2963 2984 
z
" transform="scale(0.015625)"/>
      <path id="DejaVuSerif-45" d="M 738 331 
L 738 4531 
L 184 4531 
L 184 4863 
L 1313 4863 
L 1313 2803 
Q 1481 3116 1742 3264 
Q 2003 3413 2388 3413 
Q 3000 3413 3387 2928 
Q 3775 2444 3775 1663 
Q 3775 881 3387 395 
Q 3000 -91 2388 -91 
Q 2003 -91 1742 57 
Q 1481 206 1313 519 
L 1313 0 
L 184 0 
L 184 331 
L 738 331 
z
M 1313 1497 
Q 1313 897 1542 583 
Q 1772 269 2209 269 
Q 2650 269 2876 622 
Q 3103 975 3103 1663 
Q 3103 2353 2876 2703 
Q 2650 3053 2209 3053 
Q 1772 3053 1542 2737 
Q 1313 2422 1313 1825 
L 1313 1497 
z
" transform="scale(0.015625)"/>
     </defs>
     <use xlink:href="#DejaVuSerif-29"/>
     <use xlink:href="#DejaVuSerif-44" transform="translate(62.609375 0)"/>
     <use xlink:href="#DejaVuSerif-4f" transform="translate(122.234375 0)"/>
     <use xlink:href="#DejaVuSerif-4f" transform="translate(154.21875 0)"/>
     <use xlink:href="#DejaVuSerif-52" transform="translate(186.203125 0)"/>
     <use xlink:href="#DejaVuSerif-cef" transform="translate(246.40625 0)"/>
     <use xlink:href="#DejaVuSerif-3" transform="translate(317.453125 0)"/>
     <use xlink:href="#DejaVuSerif-45" transform="translate(349.234375 0)"/>
     <use xlink:href="#DejaVuSerif-48" transform="translate(413.25 0)"/>
     <use xlink:href="#DejaVuSerif-5c" transform="translate(472.4375 0)"/>
     <use xlink:href="#DejaVuSerif-52" transform="translate(528.9375 0)"/>
     <use xlink:href="#DejaVuSerif-51" transform="translate(589.140625 0)"/>
     <use xlink:href="#DejaVuSerif-47" transform="translate(653.546875 0)"/>
     <use xlink:href="#DejaVuSerif-3" transform="translate(717.5625 0)"/>
     <use xlink:href="#DejaVuSerif-57" transform="translate(749.34375 0)"/>
     <use xlink:href="#DejaVuSerif-4b" transform="translate(789.53125 0)"/>
     <use xlink:href="#DejaVuSerif-48" transform="translate(853.9375 0)"/>
     <use xlink:href="#DejaVuSerif-3" transform="translate(913.125 0)"/>
     <use xlink:href="#DejaVuSerif-47" transform="translate(944.90625 0)"/>
     <use xlink:href="#DejaVuSerif-48" transform="translate(1008.921875 0)"/>
     <use xlink:href="#DejaVuSerif-48" transform="translate(1068.109375 0)"/>
     <use xlink:href="#DejaVuSerif-53" transform="translate(1127.296875 0)"/>
     <use xlink:href="#DejaVuSerif-48" transform="translate(1191.3125 0)"/>
     <use xlink:href="#DejaVuSerif-56" transform="translate(1250.5 0)"/>
     <use xlink:href="#DejaVuSerif-57" transform="translate(1301.8125 0)"/>
     <use xlink:href="#DejaVuSerif-3" transform="translate(1342 0)"/>
     <use xlink:href="#DejaVuSerif-35" transform="translate(1373.78125 0)"/>
     <use xlink:href="#DejaVuSerif-2f" transform="translate(1449.078125 0)"/>
     <use xlink:href="#DejaVuSerif-3" transform="translate(1515.484375 0)"/>
     <use xlink:href="#DejaVuSerif-47" transform="translate(1547.265625 0)"/>
     <use xlink:href="#DejaVuSerif-48" transform="translate(1611.28125 0)"/>
     <use xlink:href="#DejaVuSerif-53" transform="translate(1670.46875 0)"/>
     <use xlink:href="#DejaVuSerif-57" transform="translate(1734.484375 0)"/>
     <use xlink:href="#DejaVuSerif-4b" transform="translate(1774.671875 0)"/>
    </g>
   </g>
   <g id="legend_1">
    <g id="patch_11">
     <path d="M 48.416328 241.222437 
L 125.055078 241.222437 
Q 126.655078 241.222437 126.655078 239.622437 
L 126.655078 203.920523 
Q 126.655078 202.320523 125.055078 202.320523 
L 48.416328 202.320523 
Q 46.816328 202.320523 46.816328 203.920523 
L 46.816328 239.622437 
Q 46.816328 241.222437 48.416328 241.222437 
z
" style="fill: #ffffff; stroke: #000000; stroke-width: 0.8; stroke-linejoin: miter"/>
    </g>
    <g id="text_16">
     <!-- Models -->
     <g transform="translate(69.513906 211.979195) scale(0.085 -0.085)">
      <defs>
       <path id="DejaVuSerif-Bold-30" d="M 269 0 
L 269 378 
L 863 378 
L 863 4288 
L 269 4288 
L 269 4666 
L 2194 4666 
L 3525 1672 
L 4863 4666 
L 6784 4666 
L 6784 4288 
L 6188 4288 
L 6188 378 
L 6784 378 
L 6784 0 
L 4384 0 
L 4384 378 
L 4978 378 
L 4978 3938 
L 3531 684 
L 2741 684 
L 1300 3938 
L 1300 378 
L 1894 378 
L 1894 0 
L 269 0 
z
" transform="scale(0.015625)"/>
       <path id="DejaVuSerif-Bold-52" d="M 2138 263 
Q 2488 263 2630 563 
Q 2772 863 2772 1663 
Q 2772 2463 2631 2761 
Q 2491 3059 2138 3059 
Q 1784 3059 1640 2757 
Q 1497 2456 1497 1663 
Q 1497 869 1640 566 
Q 1784 263 2138 263 
z
M 2138 -91 
Q 1259 -91 761 376 
Q 263 844 263 1663 
Q 263 2484 761 2948 
Q 1259 3413 2138 3413 
Q 3019 3413 3516 2948 
Q 4013 2484 4013 1663 
Q 4013 844 3514 376 
Q 3016 -91 2138 -91 
z
" transform="scale(0.015625)"/>
       <path id="DejaVuSerif-Bold-47" d="M 2747 1497 
L 2747 1825 
Q 2747 2406 2597 2665 
Q 2447 2925 2119 2925 
Q 1775 2925 1636 2651 
Q 1497 2378 1497 1663 
Q 1497 947 1637 672 
Q 1778 397 2119 397 
Q 2447 397 2597 656 
Q 2747 916 2747 1497 
z
M 3853 378 
L 4325 378 
L 4325 0 
L 2747 0 
L 2747 422 
Q 2606 163 2367 36 
Q 2128 -91 1778 -91 
Q 1072 -91 667 378 
Q 263 847 263 1663 
Q 263 2481 667 2947 
Q 1072 3413 1778 3413 
Q 2128 3413 2367 3286 
Q 2606 3159 2747 2900 
L 2747 4488 
L 2272 4488 
L 2272 4863 
L 3853 4863 
L 3853 378 
z
" transform="scale(0.015625)"/>
       <path id="DejaVuSerif-Bold-48" d="M 2566 1875 
Q 2566 2531 2444 2795 
Q 2322 3059 2028 3059 
Q 1744 3059 1620 2800 
Q 1497 2541 1497 1931 
L 1497 1875 
L 2566 1875 
z
M 3781 1503 
L 1497 1503 
L 1497 1478 
Q 1497 834 1690 548 
Q 1884 263 2316 263 
Q 2675 263 2897 453 
Q 3119 644 3181 1006 
L 3700 1006 
Q 3566 441 3166 175 
Q 2766 -91 2047 -91 
Q 1184 -91 723 364 
Q 263 819 263 1663 
Q 263 2488 734 2950 
Q 1206 3413 2047 3413 
Q 2872 3413 3312 2927 
Q 3753 2441 3781 1503 
z
" transform="scale(0.015625)"/>
       <path id="DejaVuSerif-Bold-4f" d="M 1797 378 
L 2272 378 
L 2272 0 
L 219 0 
L 219 378 
L 691 378 
L 691 4488 
L 219 4488 
L 219 4863 
L 1797 4863 
L 1797 378 
z
" transform="scale(0.015625)"/>
       <path id="DejaVuSerif-Bold-56" d="M 300 97 
L 300 1025 
L 653 1025 
Q 697 653 931 458 
Q 1166 263 1569 263 
Q 1906 263 2086 380 
Q 2266 497 2266 716 
Q 2266 916 2152 1025 
Q 2038 1134 1709 1216 
L 1253 1331 
Q 738 1459 506 1698 
Q 275 1938 275 2344 
Q 275 2884 650 3148 
Q 1025 3413 1806 3413 
Q 2100 3413 2433 3364 
Q 2766 3316 3169 3213 
L 3169 2375 
L 2816 2375 
Q 2788 2716 2573 2887 
Q 2359 3059 1959 3059 
Q 1622 3059 1448 2951 
Q 1275 2844 1275 2638 
Q 1275 2469 1375 2372 
Q 1475 2275 1734 2209 
L 2188 2094 
Q 2841 1928 3091 1684 
Q 3341 1441 3341 1006 
Q 3341 444 2939 176 
Q 2538 -91 1691 -91 
Q 1381 -91 1034 -44 
Q 688 3 300 97 
z
" transform="scale(0.015625)"/>
      </defs>
      <use xlink:href="#DejaVuSerif-Bold-30"/>
      <use xlink:href="#DejaVuSerif-Bold-52" transform="translate(110.6875 0)"/>
      <use xlink:href="#DejaVuSerif-Bold-47" transform="translate(177.390625 0)"/>
      <use xlink:href="#DejaVuSerif-Bold-48" transform="translate(247.3125 0)"/>
      <use xlink:href="#DejaVuSerif-Bold-4f" transform="translate(310.9375 0)"/>
      <use xlink:href="#DejaVuSerif-Bold-56" transform="translate(348.921875 0)"/>
     </g>
    </g>
    <g id="line2d_22">
     <path d="M 50.016328 221.299937 
L 58.016328 221.299937 
L 66.016328 221.299937 
" style="fill: none; stroke: #d96f5a; stroke-width: 1.4; stroke-linecap: square"/>
     <g>
      <use xlink:href="#m5605e9b696" x="58.016328" y="221.299937" style="fill: #d96f5a; stroke: #000000; stroke-width: 0.7"/>
     </g>
    </g>
    <g id="text_17">
     <!-- W-A (SFT) -->
     <g transform="translate(72.416328 224.099937) scale(0.08 -0.08)">
      <defs>
       <path id="DejaVuSerif-36" d="M 594 225 
L 594 1288 
L 953 1284 
Q 969 753 1261 498 
Q 1553 244 2150 244 
Q 2706 244 2998 464 
Q 3291 684 3291 1106 
Q 3291 1444 3114 1625 
Q 2938 1806 2369 1978 
L 1753 2163 
Q 1084 2366 811 2669 
Q 538 2972 538 3500 
Q 538 4094 959 4422 
Q 1381 4750 2144 4750 
Q 2469 4750 2856 4679 
Q 3244 4609 3681 4475 
L 3681 3481 
L 3328 3481 
Q 3275 3975 2998 4195 
Q 2722 4416 2156 4416 
Q 1663 4416 1405 4214 
Q 1147 4013 1147 3628 
Q 1147 3294 1340 3103 
Q 1534 2913 2163 2725 
L 2741 2553 
Q 3375 2363 3645 2067 
Q 3916 1772 3916 1275 
Q 3916 597 3481 253 
Q 3047 -91 2188 -91 
Q 1803 -91 1404 -12 
Q 1006 66 594 225 
z
" transform="scale(0.015625)"/>
       <path id="DejaVuSerif-37" d="M 1222 0 
L 1222 331 
L 1819 331 
L 1819 4294 
L 447 4294 
L 447 3566 
L 63 3566 
L 63 4666 
L 4206 4666 
L 4206 3566 
L 3822 3566 
L 3822 4294 
L 2450 4294 
L 2450 331 
L 3047 331 
L 3047 0 
L 1222 0 
z
" transform="scale(0.015625)"/>
      </defs>
      <use xlink:href="#DejaVuSerif-3a"/>
      <use xlink:href="#DejaVuSerif-10" transform="translate(95.5 0)"/>
      <use xlink:href="#DejaVuSerif-24" transform="translate(129.296875 0)"/>
      <use xlink:href="#DejaVuSerif-3" transform="translate(201.515625 0)"/>
      <use xlink:href="#DejaVuSerif-b" transform="translate(233.296875 0)"/>
      <use xlink:href="#DejaVuSerif-36" transform="translate(272.3125 0)"/>
      <use xlink:href="#DejaVuSerif-29" transform="translate(340.8125 0)"/>
      <use xlink:href="#DejaVuSerif-37" transform="translate(410.203125 0)"/>
      <use xlink:href="#DejaVuSerif-c" transform="translate(476.90625 0)"/>
     </g>
    </g>
    <g id="line2d_23">
     <path d="M 50.016328 233.300562 
L 58.016328 233.300562 
L 66.016328 233.300562 
" style="fill: none; stroke: #6baed6; stroke-width: 1.4; stroke-linecap: square"/>
     <g>
      <use xlink:href="#mf65bdcea5b" x="58.016328" y="233.300562" style="fill: #6baed6; stroke: #000000; stroke-width: 0.7"/>
     </g>
    </g>
    <g id="text_18">
     <!-- GRPO (ours) -->
     <g transform="translate(72.416328 236.100562) scale(0.08 -0.08)">
      <use xlink:href="#DejaVuSerif-2a"/>
      <use xlink:href="#DejaVuSerif-35" transform="translate(79.890625 0)"/>
      <use xlink:href="#DejaVuSerif-33" transform="translate(155.1875 0)"/>
      <use xlink:href="#DejaVuSerif-32" transform="translate(222.46875 0)"/>
      <use xlink:href="#DejaVuSerif-3" transform="translate(304.453125 0)"/>
      <use xlink:href="#DejaVuSerif-b" transform="translate(336.234375 0)"/>
      <use xlink:href="#DejaVuSerif-52" transform="translate(375.25 0)"/>
      <use xlink:href="#DejaVuSerif-58" transform="translate(435.453125 0)"/>
      <use xlink:href="#DejaVuSerif-55" transform="translate(499.859375 0)"/>
      <use xlink:href="#DejaVuSerif-56" transform="translate(547.65625 0)"/>
      <use xlink:href="#DejaVuSerif-c" transform="translate(598.96875 0)"/>
     </g>
    </g>
   </g>
  </g>
 </g>
 <defs>
  <clipPath id="pb8fa564daa">
   <rect x="42.816328" y="17.918437" width="334.8" height="227.304"/>
  </clipPath>
 </defs>
</svg>
